<?xml version="1.0" standalone="no"?>
<!DOCTYPE svg PUBLIC "-//W3C//DTD SVG 20010904//EN"
 "http://www.w3.org/TR/2001/REC-SVG-20010904/DTD/svg10.dtd">
<svg version="1.0" xmlns="http://www.w3.org/2000/svg"
 width="1536.000000pt" height="1024.000000pt" viewBox="0 0 1536.000000 1024.000000"
 preserveAspectRatio="xMidYMid meet">

<g transform="translate(0.000000,1024.000000) scale(0.100000,-0.100000)"
fill="#000000" stroke="none">
<path d="M4890 7156 c-202 -36 -413 -135 -553 -257 -30 -26 -40 -44 -44 -76
-5 -37 -2 -46 25 -73 48 -47 85 -42 172 25 94 71 224 137 336 171 80 25 105
28 244 28 168 1 229 -10 361 -65 77 -31 195 -104 252 -155 49 -45 96 -46 138
-5 22 22 29 39 29 67 0 32 -7 45 -48 84 -98 94 -294 196 -462 239 -108 28
-338 37 -450 17z"/>
<path d="M4937 6765 c-140 -27 -308 -111 -371 -185 -24 -29 -27 -40 -23 -74 7
-50 44 -86 90 -86 23 0 52 15 102 51 118 87 209 119 340 119 137 0 236 -36
346 -126 67 -55 106 -59 150 -15 42 43 41 102 -3 143 -156 146 -409 215 -631
173z"/>
<path d="M4990 6365 c-20 -9 -279 -210 -575 -448 l-540 -432 -35 -69 -35 -69
0 -801 0 -801 29 -58 c36 -70 99 -130 174 -165 l57 -27 718 -3 c461 -2 731 1
755 8 104 27 130 152 42 203 -25 15 -92 17 -727 17 -445 0 -711 4 -735 10 -20
6 -48 24 -62 41 l-26 31 0 741 c0 711 1 743 19 773 10 17 113 105 227 196 115
90 329 259 475 375 306 242 313 247 337 241 10 -3 239 -181 509 -397 383 -305
494 -398 502 -423 7 -20 11 -146 11 -355 0 -358 2 -368 62 -399 63 -33 139 4
158 76 12 45 12 579 0 677 -11 88 -43 154 -102 209 -51 49 -985 795 -1042 833
-48 31 -142 39 -196 16z"/>
<path d="M5030 5627 c-13 -7 -35 -28 -47 -46 -23 -34 -23 -36 -23 -398 0 -390
3 -413 51 -447 30 -20 98 -21 127 0 51 35 52 46 52 439 0 409 -2 419 -65 449
-40 19 -62 20 -95 3z"/>
<path d="M4695 5313 c-32 -8 -163 -142 -216 -222 -69 -103 -100 -207 -107
-348 -6 -137 13 -231 68 -341 215 -426 773 -519 1127 -189 229 215 286 530
147 814 -35 73 -63 112 -129 182 -47 49 -98 94 -115 101 -38 16 -75 6 -111
-30 -24 -24 -29 -37 -29 -78 0 -49 1 -51 80 -130 62 -62 89 -99 118 -159 36
-76 37 -81 37 -193 0 -97 -4 -124 -24 -173 -70 -176 -245 -303 -435 -315 -313
-20 -565 247 -519 549 17 109 62 189 160 287 81 81 83 84 83 130 0 56 -20 89
-66 108 -35 15 -36 15 -69 7z"/>
<path d="M6659 4132 c-225 -75 -328 -333 -224 -560 28 -62 79 -121 136 -157
97 -63 257 -72 356 -22 51 26 123 89 123 107 0 5 -20 25 -45 46 l-46 37 -27
-26 c-39 -37 -93 -57 -157 -57 -138 0 -227 95 -229 245 -1 93 22 153 80 204
85 75 203 80 300 15 l38 -26 38 43 c20 24 38 49 38 56 0 17 -59 63 -110 86
-64 29 -198 33 -271 9z"/>
<path d="M7370 4136 c-69 -20 -109 -44 -162 -97 -59 -59 -94 -132 -106 -219
-26 -189 57 -354 216 -428 50 -24 70 -27 157 -27 87 0 107 3 157 27 79 37 142
98 181 177 31 63 32 70 32 186 0 116 -1 123 -32 186 -39 79 -102 141 -180 176
-66 31 -193 40 -263 19z m181 -137 c97 -33 149 -116 149 -240 0 -167 -78 -259
-220 -259 -98 0 -160 35 -203 115 -18 33 -22 57 -22 141 0 94 2 104 30 149 54
87 167 127 266 94z"/>
<path d="M9030 4135 c-120 -34 -222 -138 -255 -260 -26 -95 -17 -214 22 -297
120 -254 469 -294 635 -73 21 28 38 52 38 55 0 3 -29 16 -63 31 l-63 25 -41
-47 c-49 -54 -106 -75 -183 -66 -85 10 -146 52 -186 127 -28 53 -27 200 3 255
44 83 108 119 208 119 82 0 119 -16 166 -73 l33 -39 58 21 c32 12 58 25 58 29
0 5 -9 26 -19 47 -25 49 -91 107 -149 133 -63 27 -188 33 -262 13z"/>
<path d="M11787 4132 c-99 -36 -156 -110 -157 -204 0 -60 13 -95 53 -136 41
-44 80 -62 204 -101 110 -34 143 -59 143 -111 0 -36 -46 -76 -99 -85 -61 -10
-120 11 -167 59 l-40 42 -50 -33 c-27 -18 -50 -38 -52 -43 -6 -18 37 -77 75
-102 64 -43 103 -53 198 -53 102 0 164 22 224 78 44 42 61 84 61 152 0 115
-60 176 -224 226 -128 40 -150 51 -165 87 -26 62 22 112 106 112 67 0 99 -13
139 -57 l33 -36 45 27 c25 14 48 31 51 36 9 15 -20 64 -59 98 -68 59 -218 80
-319 44z"/>
<path d="M5810 3755 l0 -385 245 0 245 0 0 65 0 65 -170 0 -170 0 0 95 0 95
145 0 145 0 0 65 0 65 -145 0 -145 0 0 90 0 90 170 0 170 0 0 70 0 70 -245 0
-245 0 0 -385z"/>
<path d="M7970 3755 l0 -385 75 0 75 0 2 250 3 250 189 -250 189 -250 64 0 63
0 0 385 0 385 -75 0 -75 0 -2 -250 -3 -250 -189 250 -189 250 -64 0 -63 0 0
-385z"/>
<path d="M9600 3755 l0 -385 260 0 260 0 0 70 0 70 -185 0 -185 0 0 90 0 89
153 3 152 3 0 65 0 65 -152 3 -153 3 0 84 0 85 180 0 180 0 0 70 0 70 -255 0
-255 0 0 -385z"/>
<path d="M10290 3755 l0 -385 75 0 75 0 0 125 0 125 108 0 c124 0 178 14 236
62 123 101 113 317 -18 405 -69 47 -102 53 -298 53 l-178 0 0 -385z m396 211
c30 -30 34 -40 34 -86 0 -46 -4 -56 -34 -86 l-34 -34 -106 0 -106 0 0 120 0
120 106 0 106 0 34 -34z"/>
<path d="M10942 4073 l3 -68 115 -1 115 -1 3 -316 2 -317 75 0 75 0 0 320 0
320 115 0 115 0 0 65 0 65 -310 0 -311 0 3 -67z"/>
</g>
</svg>
